<svg xmlns="http://www.w3.org/2000/svg" fill="none" viewBox="0 0 202 60">
  <g clip-path="url(#clip0)">
    <path fill="#FDC305" d="M59.8801 24A25.6096 25.6096 0 0039.6359 8.4793a25.6095 25.6095 0 00-23.6075 9.6644 25.6097 25.6097 0 004.3598 35.8301A25.6099 25.6099 0 0032.5101 59.2c-.58-2.09-1.17-4.4-1.69-6.85a32.3098 32.3098 0 004.76 2.55s.12 2.16.28 4.57a25.4823 25.4823 0 005.33-.47 2.1374 2.1374 0 010-.76c.29-1.87 1.09-5.24 1.25-7.41a15.223 15.223 0 002.9-3.71l-.06.44c-.55 4.26-1.7 8.81-2.4 10.07a5.5848 5.5848 0 01-.83 1.15 25.6397 25.6397 0 0019.7631-23.927A25.6398 25.6398 0 0059.8801 24zm-1.47 3.79c-.44.43-1.35.72-1.5-.58-.15-1.3-.19-2.21-.19-2.21s-1.93-3.43-2.65-3.47c-.72-.04-5.83 3.47-7.18 5-1.17 1.29-1.4 1.2-1.4 3.47 0 1.71.22 8.17.1 13.11l-8.15 2.17a64.0059 64.0059 0 01-7.8 1.72l-1-5.83h-.14L25.9301 28s-3.81-1.44-5.21-1.83a3.7604 3.7604 0 00-4 .63 5.069 5.069 0 00-1.73 3.85c.2113.4648.3723.9509.48 1.45.05.48-1.2.43-2 .43s-.92-1.44-.29-3.13a22.8082 22.8082 0 011.82-3.74 11.8686 11.8686 0 012.07-2.89s.14-.34 1.25-.24c1.11.1 7.28.43 7.28.43l.05-2.27a142.7631 142.7631 0 0120.24-1.34v1.83a22.52 22.52 0 018.14-2 .9094.9094 0 01.77.39c.34.43 2.41 3 2.65 3.37a28.0077 28.0077 0 011.83 3 6.2428 6.2428 0 01-.87 1.84v.01z"/>
    <path fill="#F06351" d="M56.46 21.67c.47.6.88 1.13 1 1.29a28.0077 28.0077 0 011.83 3 6.2417 6.2417 0 01-.86 1.78c-.44.43-1.35.72-1.5-.58-.15-1.3-.21-2.16-.21-2.16s-1.93-3.43-2.65-3.47c-.72-.04-5.83 3.47-7.18 5-1.17 1.29-1.4 1.2-1.4 3.47 0 1.5.17 6.65.13 11.23 1.81.2 4.47.7 5.27 1.88 0 0-.29-7.18 7.81-3.42 0 0 .28-9.79 11.46-7.28a43.7205 43.7205 0 00-13.7-10.74z"/>
    <path fill="#F06351" d="M45.93 19.35a90.4414 90.4414 0 00-1.4-16.53s-.15-1.3-.87-.24a14.263 14.263 0 00-1.2 4 70.8796 70.8796 0 00-12.82.34c-.82-2.75-2.22-4-2.89-3.67-.67.33-.75 3.28-.75 3.28l-.33 14.16a142.7789 142.7789 0 0120.26-1.34z"/>
    <path fill="#E55645" d="M45.35 47.12c.13-1.07.2-2.49.24-4.06l-8.15 2.17a64.0052 64.0052 0 01-7.8 1.77l1.11 5c0 .11 0 .22.07.33a32.32 32.32 0 004.76 2.55 42.4198 42.4198 0 006.88-4.13v.06a15.2196 15.2196 0 002.89-3.69z"/>
    <path fill="black" d="M32 16.22c-.05-.1 1 .68 1.41.92.41.24.61.42.61.59 0 .17-.26.34-.62.34s-.92-.12-1-.26c-.08-.14.6 0 .94 0h.29A8.0825 8.0825 0 0132 16.22z"/>
    <path fill="black" d="M39.5 16.33s-1 1.28-1.09 1.34c-.09.06-.17.34.19.29a8.0909 8.0909 0 001.22-.28c.11-.06.07-.2-.12-.18-.19.02-.68.05-1 .11l.85-1.27s.03-.12-.05-.01z"/>
    <path fill="black" d="M36.36 22.44a2.2994 2.2994 0 001.09-1c.28-.66 0-.91-.44-1a2.4502 2.4502 0 00-1.75.34c-.39.37-.34.73 0 1a5.1606 5.1606 0 001.1.66z"/>
    <path fill="#F06351" d="M36 23.7a2.0505 2.0505 0 01-.46.6 1.73 1.73 0 01-1 .38 2.18 2.18 0 01-1.54-.44 1.9989 1.9989 0 01-.53-.45 1.0012 1.0012 0 00-.36-.25s.75 4.11 2.57 4.77c1.82.66 2.16-.76 2.21-1.14a5.63 5.63 0 00-.82-3.24c0-.3-.02-.1-.07-.23z"/>
    <path fill="black" d="M34.3001 24.84a3.5005 3.5005 0 01-2.35-1.43.15.15 0 010-.2.14.14 0 01.2 0 3.219 3.219 0 002.11 1.31 2.1099 2.1099 0 001.64-1l.14-.19.1.22s.38.76 1 .8c.62.04 1.06-.42 1.63-1.29a.1442.1442 0 01.24.16c-.6667.98-1.2967 1.45-1.89 1.41a1.5502 1.5502 0 01-1.12-.73 2.2606 2.2606 0 01-1.7.94z"/>
    <path fill="#FDC305" d="M36.26 38.3c2.0711 0 3.75-1.6789 3.75-3.75s-1.6789-3.75-3.75-3.75-3.75 1.6789-3.75 3.75 1.6789 3.75 3.75 3.75z"/>
    <path fill="#111111" d="M41.23 31.5l-3.13 1.31 1.15-5.63-7.5 9.76 3.13-1.31-1.15 5.64 7.5-9.77zm-7.39 3.83L38 29.92l-.81 4 2-.82L35 38.52l.81-4-1.97.81z"/>
    <path fill="#111111" d="M32.4399 33.86c.6186 0 1.12-.5014 1.12-1.12 0-.6186-.5014-1.12-1.12-1.12-.6185 0-1.12.5014-1.12 1.12 0 .6186.5015 1.12 1.12 1.12z"/>
    <path fill="#111111" d="M38.96 37.92a.79.79 0 100-1.58.79.79 0 000 1.58z"/>
    <path fill="#111111" d="M39.9199 35.75a.35.35 0 100-.7.35.35 0 000 .7z"/>
    <path fill="#F06351" d="M45.88 21.16a57.4668 57.4668 0 00-5.09 5.21 31.8773 31.8773 0 01-5.31 4.9c-.22-.53-1.63-1.52-1.63-1.52s-3.14-2.15-5.2-3.84a31.8942 31.8942 0 01-3.14-3l-2-.11a22.6298 22.6298 0 0012 8.84c.86-.14 3.28-1.87 5.09-3.28a57.6637 57.6637 0 006-5.91 6.3803 6.3803 0 001.14-2c-1.14.38-1.86.71-1.86.71z"/>
    <path fill="#FDC305" d="M65.22 3.5l-8.46 9.44-1.22-1.99L63.69 0l1.53 3.5z"/>
    <path fill="#FDC305" d="M62.65 17.26l5.54-4.11-.78-3.74-5.4 4.81.64 3.04z"/>
    <path fill="#FDC305" d="M59.92 49.37l6.13 3.18 3.01-2.34-6.69-2.75-2.45 1.91z"/>
    <path fill="#FDC305" d="M1.95 5.97l3.07-3.36 9.29 9-1.22 2.28L1.95 5.97z"/>
    <path fill="#FDC305" d="M7.38 16.28l-4.7-3.13-2.4 3.87 5.15 2.4 1.95-3.14z"/>
    <path fill="#FDC305" d="M13.91 52.55L9.36 55.9l2.8 3.58 4.02-4.02-2.27-2.91z"/>
    <path fill="#F06351" d="M25.93 28s-3.81-1.44-5.21-1.83a3.7604 3.7604 0 00-4 .63 5.07 5.07 0 00-1.73 3.85 7.14 7.14 0 01.48 1.45c.05.48-1.2.43-2 .43s-.92-1.44-.29-3.13A22.8082 22.8082 0 0115 25.66c-5.45 2.84-15 9.4-15 9.4a45.8253 45.8253 0 018.19.24c5.25.53 5 4.67 5 4.67a38.6256 38.6256 0 015.63-1.11c2.12-.14 2.27 2.12 2.27 2.12l.53 3.86a18.2936 18.2936 0 012.65-2.36 6.06 6.06 0 014.38-1.3L25.93 28z"/>
    <path fill="#111111" d="M85.6599 42a8.2908 8.2908 0 01-1.4-5.19v-7.5a8.4205 8.4205 0 011.38-5.24c.9267-1.1933 2.51-1.7867 4.75-1.78 2.24.0067 3.7567.53 4.55 1.57a6.7194 6.7194 0 011.33 4.49v1.76h-4.14V28.2a9.9846 9.9846 0 00-.13-1.5 1.6796 1.6796 0 00-.47-.95 1.5589 1.5589 0 00-1.15-.37 1.4598 1.4598 0 00-1.5.75 5.4717 5.4717 0 00-.34 2.2v9.52a4.7812 4.7812 0 00.39 2.2 1.4797 1.4797 0 001.45.73 1.35 1.35 0 001.4-.74 5.84 5.84 0 00.31-2.19v-2h4.14v1.73a7.2498 7.2498 0 01-1.23 4.61c-.88 1.1-2.4 1.64-4.56 1.64-2.16 0-3.85-.6-4.78-1.83z"/>
    <path fill="#111111" d="M101.91 22.58h4.74l4 21h-3.94l-.71-4.64h-3.32l-.8 4.61h-4l4.03-20.97zm3.65 13.72l-1.26-8.44-1.25 8.44h2.51z"/>
    <path fill="#111111" d="M113.72 25.74h-3.24v-3.16h10.72v3.16H118v17.81h-4.29l.01-17.81z"/>
    <path fill="#444444" d="M129.61 22.58h8.13v2.18h-5.2v6.93h4.22v2.07h-4.22v7.69h5.25v2.1h-8.18V22.58z"/>
    <path fill="#444444" d="M140.15 22.58h2l6 13.93V22.58h2.44v21h-1.87l-6-14.32v14.29h-2.48l-.09-20.97z"/>
    <path fill="#444444" d="M153.82 22.58h8.12v2.18h-5.2v6.93H161v2.07h-4.22v7.69H162v2.1h-8.18V22.58z"/>
    <path fill="#444444" d="M164.35 22.58h4.22a7.0002 7.0002 0 014.67 1.31c1 .87 1.49 2.29 1.49 4.26 0 2.6667-.863 4.2967-2.59 4.89l3 10.51h-2.84l-2.75-9.84h-2.27v9.84h-2.93V22.58zm4 9a3.8704 3.8704 0 002.7-.76c.314-.3719.549-.8042.69-1.2702.141-.4661.185-.956.13-1.4398a5.8513 5.8513 0 00-.29-2 1.8871 1.8871 0 00-.391-.6413 1.8837 1.8837 0 00-.609-.4387 4.759 4.759 0 00-2.05-.35h-1.29v6.94l1.11-.04z"/>
    <path fill="#444444" d="M178.67 42a9.2471 9.2471 0 01-1.27-5.35v-7a13.5127 13.5127 0 01.5-4 4.483 4.483 0 011.74-2.41 5.9093 5.9093 0 013.36-.84 5.2587 5.2587 0 014.18 1.48 7.0013 7.0013 0 011.28 4.63v.78h-2.75v-.65a11.4914 11.4914 0 00-.18-2.32 1.9991 1.9991 0 00-.76-1.23 2.9988 2.9988 0 00-1.72-.41 2.5209 2.5209 0 00-1.81.56 2.5571 2.5571 0 00-.77 1.48 14.7183 14.7183 0 00-.17 2.49V37a7.5178 7.5178 0 00.59 3.46c.271.3354.616.6043 1.007.7861a2.8295 2.8295 0 003.463-.8761 8.1044 8.1044 0 00.61-3.65v-1.48h-2.66v-2.07h5.3v10.38h-1.81l-.29-2.41a3.685 3.685 0 01-1.4 1.985 3.6881 3.6881 0 01-2.33.685 4.6573 4.6573 0 01-2.287-.3772A4.6576 4.6576 0 01178.67 42z"/>
    <path fill="#444444" d="M194.69 36.15l-4.53-13.57h2.72l3.21 10.12 3.16-10.12H202l-4.5 13.57v7.4h-2.8l-.01-7.4z"/>
  </g>
  <defs>
    <clipPath id="clip0">
      <path fill="white" d="M0 0h201.99v59.48H0z"/>
    </clipPath>
  </defs>
</svg>
