<svg xmlns="http://www.w3.org/2000/svg" width="174" height="52" fill="none" viewBox="0 0 174 52">
  <g clip-path="url(#clip0)">
    <path fill="#FDC305" d="M51.5819 20.854c-1.485-3.589-3.8766-6.7228-6.9363-9.0891-3.0598-2.3662-6.681-3.8823-10.5026-4.397a21.8868 21.8868 0 00-11.2784 1.463c-3.5681 1.4734-6.6911 3.8643-9.0578 6.9345-2.3666 3.0701-3.8943 6.7123-4.4307 10.5636a22.4316 22.4316 0 001.3735 11.3861c1.4364 3.6091 3.7854 6.7755 6.8129 9.1836s6.6278 3.9739 10.4421 4.5412c-.4996-1.8161-1.0079-3.8233-1.4558-5.9521a27.7562 27.7562 0 004.1004 2.2157s.1034 1.8769.2412 3.971a21.7644 21.7644 0 004.5914-.4084 1.8737 1.8737 0 010-.6604c.2498-1.6249.939-4.5531 1.0768-6.4387a13.212 13.212 0 002.4981-3.2236l-.0517.3823c-.4738 3.7016-1.4644 7.6551-2.0674 8.75a4.8448 4.8448 0 01-.715.9992c3.1182-.7378 6.04-2.1509 8.5629-4.1413 2.5228-1.9903 4.5863-4.5103 6.0474-7.3852a22.43 22.43 0 002.4143-9.2641 22.451 22.451 0 00-1.6653-9.4303zm-1.2663 3.2932c-.379.3736-1.1629.6256-1.2921-.504-.1293-1.1296-.1637-1.9203-.1637-1.9203s-1.6626-2.9804-2.2828-3.0151c-.6202-.0348-5.0221 3.0151-6.1851 4.3446-1.0078 1.1209-1.206 1.0427-1.206 3.0151 0 1.4859.1896 7.0991.0862 11.3915l-7.0207 1.8856a54.7237 54.7237 0 01-6.7191 1.4945l-.8614-5.0658h-.1206l-2.2139-11.4436s-3.2821-1.2513-4.4881-1.5901a3.2132 3.2132 0 00-1.8021-.2342 3.2268 3.2268 0 00-1.6436.7816 4.4023 4.4023 0 00-1.1066 1.5088 4.437 4.437 0 00-.3836 1.8365 6.237 6.237 0 01.4134 1.2599c.0431.4171-1.0337.3737-1.7228.3737-.6892 0-.7925-1.2513-.2498-2.7197a19.8854 19.8854 0 011.5678-3.2498 10.3122 10.3122 0 011.7831-2.5112s.1206-.2954 1.0768-.2085c.9562.0869 6.2712.3736 6.2712.3736l.0431-1.9724a121.9493 121.9493 0 0117.4353-1.1644v1.5902a19.265 19.265 0 017.012-1.7379.778.778 0 01.3741.0851.7862.7862 0 01.2892.2538c.2929.3736 2.0761 2.6068 2.2828 2.9283a24.3446 24.3446 0 011.5764 2.6067 5.4407 5.4407 0 01-.7494 1.5988v.0087z"/>
    <path fill="#F06351" d="M48.6363 18.8294c.4048.5214.758.9819.8614 1.1209a24.356 24.356 0 011.5764 2.6068 5.4438 5.4438 0 01-.7408 1.5467c-.379.3736-1.1629.6256-1.2922-.504-.1292-1.1296-.1809-1.8769-.1809-1.8769s-1.6625-2.9804-2.2827-3.0151c-.6203-.0348-5.0222 3.0151-6.1851 4.3446-1.0079 1.1209-1.206 1.0427-1.206 3.0151 0 1.3034.1464 5.7783.112 9.7579 1.5592.1738 3.8506.6083 4.5397 1.6336 0 0-.2498-6.2388 6.7278-2.9717 0 0 .2412-8.5067 9.8719-6.3257-3.2739-3.8772-7.2873-7.0509-11.8015-9.3322z"/>
    <path fill="#F06351" d="M39.5654 16.8135a79.2482 79.2482 0 00-1.206-14.3632s-.1292-1.1295-.7494-.2085a12.4704 12.4704 0 00-1.0337 3.4757 60.5351 60.5351 0 00-11.0435.2954c-.7064-2.3895-1.9124-3.4757-2.4896-3.189-.5771.2868-.646 2.8501-.646 2.8501l-.2843 12.3039a121.9562 121.9562 0 0117.4525-1.1644z"/>
    <path fill="#E55645" d="M39.0651 40.9434c.112-.9298.1723-2.1636.2068-3.5278l-7.0203 1.8855a54.7295 54.7295 0 01-6.7189 1.538l.9562 4.3446c0 .0956 0 .1911.0603.2867a27.764 27.764 0 004.1002 2.2158 36.4853 36.4853 0 005.9263-3.5887v.0522a13.2078 13.2078 0 002.4894-3.2063z"/>
    <path fill="black" d="M27.5657 14.0938c-.043-.0869.8614.5909 1.2146.7994.3531.2086.5254.365.5254.5127 0 .1477-.2239.2954-.534.2954-.3101 0-.7925-.1042-.8614-.2259-.0689-.1216.5168 0 .8097 0h.2498a6.9893 6.9893 0 01-1.4041-1.3816z"/>
    <path fill="black" d="M34.0264 14.1894s-.8614 1.1122-.9389 1.1644c-.0776.0521-.1465.2954.1636.2519a6.9111 6.9111 0 001.0509-.2433c.0948-.0521.0603-.1737-.1034-.1564-.1636.0174-.5857.0435-.8613.0956l.7321-1.1035s.0259-.1043-.043-.0087z"/>
    <path fill="black" d="M31.3215 19.4985a1.9881 1.9881 0 00.9389-.8689c.2412-.5735 0-.7907-.379-.8689a2.0952 2.0952 0 00-1.5074.2954c-.336.3215-.2929.6343 0 .8689a4.435 4.435 0 00.9475.5735z"/>
    <path fill="#F06351" d="M31.0113 20.5933a1.7793 1.7793 0 01-.3963.5214 1.4823 1.4823 0 01-.8613.3302 1.8663 1.8663 0 01-1.3266-.3824 1.7252 1.7252 0 01-.4565-.391.8624.8624 0 00-.3101-.2172s.646 3.5712 2.2138 4.1447c1.5677.5735 1.8605-.6603 1.9036-.9905a4.9254 4.9254 0 00-.7063-2.8153c0-.2607-.0172-.0869-.0603-.1999z"/>
    <path fill="black" d="M29.5469 21.5839a2.9982 2.9982 0 01-1.1382-.4123 3.0258 3.0258 0 01-.8861-.8303.1314.1314 0 010-.1737.1216.1216 0 01.0862-.0366.121.121 0 01.0861.0366 2.785 2.785 0 00.7956.753c.312.1954.6594.3263 1.0219.3852a1.8056 1.8056 0 00.8101-.2629 1.8242 1.8242 0 00.6026-.606l.1206-.1651.0862.1912s.3273.6604.8613.6951c.5341.0348.9131-.3649 1.4041-1.1209a.1233.1233 0 01.1723-.0347.1255.1255 0 01.0344.1737c-.5742.8516-1.1169 1.26-1.628 1.2252a1.3285 1.3285 0 01-.5536-.2068 1.341 1.341 0 01-.4111-.4275 1.9535 1.9535 0 01-.6408.5752 1.9347 1.9347 0 01-.8236.2416z"/>
    <path fill="#FDC305" d="M31.2353 33.2795c1.7839 0 3.2302-1.4588 3.2302-3.2584 0-1.7996-1.4463-3.2585-3.2302-3.2585-1.784 0-3.2302 1.4589-3.2302 3.2585s1.4462 3.2584 3.2302 3.2584z"/>
    <path fill="#111111" d="M35.5163 27.3709l-2.6961 1.1383.9906-4.892-6.4604 8.4806 2.6961-1.1383-.9906 4.9007 6.4604-8.4893zm-6.3656 3.3279l3.5833-4.7008-.6977 3.4757 1.7228-.7126-3.6092 4.7096.6977-3.4757-1.6969.7038z"/>
    <path fill="#111111" d="M27.9447 29.4215c.5328 0 .9648-.4357.9648-.9732 0-.5374-.432-.9732-.9648-.9732-.5328 0-.9648.4358-.9648.9732 0 .5375.432.9732.9648.9732z"/>
    <path fill="#111111" d="M33.5612 32.9493c.3759 0 .6805-.3073.6805-.6864s-.3046-.6865-.6805-.6865c-.3758 0-.6805.3074-.6805.6865s.3047.6864.6805.6864z"/>
    <path fill="#111111" d="M34.3882 31.0638c.1665 0 .3015-.1362.3015-.3041 0-.168-.135-.3042-.3015-.3042-.1665 0-.3015.1362-.3015.3042 0 .1679.135.3041.3015.3041z"/>
    <path fill="#F06351" d="M39.5224 18.3863a49.7292 49.7292 0 00-4.3847 4.527 27.5552 27.5552 0 01-4.5742 4.2577c-.1895-.4605-1.4041-1.3207-1.4041-1.3207s-2.7049-1.8682-4.4795-3.3367a27.5783 27.5783 0 01-2.7048-2.6067l-1.7229-.0956c2.487 3.6644 6.1304 6.3717 10.3371 7.6812.7409-.1216 2.8255-1.6248 4.3847-2.85a49.8855 49.8855 0 005.1686-5.1353 5.5563 5.5563 0 00.982-1.7379c-.982.3302-1.6022.617-1.6022.617z"/>
    <path fill="#F06351" d="M22.3368 24.3297s-3.282-1.2513-4.488-1.5901a3.2136 3.2136 0 00-1.8022-.2342 3.2269 3.2269 0 00-1.6435.7816 4.4026 4.4026 0 00-1.1067 1.5088 4.4385 4.4385 0 00-.3836 1.8365c.1821.4039.3207.8262.4135 1.2599.0431.4171-1.0337.3737-1.7229.3737-.6891 0-.7925-1.2513-.2498-2.7197a19.8936 19.8936 0 011.5678-3.2498C8.2266 24.7641 0 30.4642 0 30.4642a39.1361 39.1361 0 017.0551.2086c4.5225.4605 4.3071 4.0578 4.3071 4.0578a33.033 33.033 0 014.8499-.9645c1.8262-.1216 1.9554 1.8421 1.9554 1.8421l.4566 3.354a15.8041 15.8041 0 012.2828-2.0506c1.0634-.8587 2.4174-1.264 3.773-1.1296l-2.3431-11.4523z"/>
    <path fill="#111111" d="M73.7899 36.4945a7.2502 7.2502 0 01-1.2059-4.5097V25.468a7.3644 7.3644 0 011.1887-4.5532c.7982-1.0369 2.1621-1.5524 4.0916-1.5466 1.9295.0058 3.2359.4605 3.9193 1.3642.8332 1.1198 1.2398 2.5044 1.1456 3.9014v1.5293h-3.5661v-1.6596a8.7684 8.7684 0 00-.112-1.3034 1.4643 1.4643 0 00-.4049-.8255 1.3412 1.3412 0 00-.4631-.2614 1.3336 1.3336 0 00-.5274-.0601 1.248 1.248 0 00-.7481.12 1.2628 1.2628 0 00-.544.5317 4.7906 4.7906 0 00-.2929 1.9116v8.2721a4.1856 4.1856 0 00.3359 1.9116c.1243.217.3087.3926.5306.5053.2219.1127.4716.1576.7185.129a1.1537 1.1537 0 00.7062-.1244 1.1677 1.1677 0 00.4997-.5186 5.1136 5.1136 0 00.267-1.9029v-1.7378h3.5662v1.5032a6.342 6.342 0 01-1.0595 4.0057c-.7581.9558-2.0674 1.425-3.928 1.425-1.8606 0-3.3163-.5213-4.1174-1.5901z"/>
    <path fill="#111111" d="M87.788 19.6201h4.083l3.4456 18.2473h-3.3939l-.6116-4.0318h-2.8598l-.6891 4.0057h-3.4455l3.4713-18.2212zm3.1441 11.9216l-1.0853-7.3337-1.0768 7.3337h2.1621z"/>
    <path fill="#111111" d="M97.9615 22.3659h-2.7908v-2.7458h9.2343v2.7458h-2.757v15.4754h-3.6951l.0086-15.4754z"/>
    <path fill="#444444" d="M111.65 19.6201h7.003v1.8943h-4.479v6.0216h3.635v1.7986h-3.635v6.682h4.522v1.8247h-7.046V19.6201z"/>
    <path fill="#444444" d="M120.729 19.6201h1.723l5.168 12.104v-12.104h2.102v18.2473h-1.611l-5.168-12.4429v12.4168h-2.136l-.078-18.2212z"/>
    <path fill="#444444" d="M132.505 19.6201h6.994v1.8943h-4.479v6.0216h3.67v1.7986h-3.635v6.682h4.496v1.8247h-7.046V19.6201z"/>
    <path fill="#444444" d="M141.576 19.6201h3.635c1.432-.1162 2.859.2874 4.023 1.1383.861.756 1.283 1.9898 1.283 3.7016 0 2.3171-.744 3.7335-2.231 4.249l2.584 9.1323h-2.446l-2.369-8.5501H144.1v8.5501h-2.524V19.6201zm3.445 7.8203c.83.081 1.66-.1546 2.326-.6604a3.115 3.115 0 00.595-1.1037c.121-.405.159-.8307.111-1.251a5.1208 5.1208 0 00-.249-1.7379 1.6448 1.6448 0 00-.337-.5573 1.6241 1.6241 0 00-.525-.3811 4.0676 4.0676 0 00-1.766-.3041h-1.111v6.0302l.956-.0347z"/>
    <path fill="#444444" d="M153.911 36.4945c-.823-1.4019-1.204-3.0231-1.094-4.6487v-6.0824a11.857 11.857 0 01.431-3.4757 3.8944 3.8944 0 011.499-2.0941 5.0565 5.0565 0 012.894-.7299c.657-.063 1.32.0195 1.941.2416a4.526 4.526 0 011.66 1.0444 6.1204 6.1204 0 011.102 4.0231v.6778h-2.368v-.5648a10.088 10.088 0 00-.155-2.0159 1.7417 1.7417 0 00-.655-1.0688 2.5674 2.5674 0 00-1.482-.3562 2.1582 2.1582 0 00-1.559.4866 2.2286 2.2286 0 00-.663 1.286 13.054 13.054 0 00-.147 2.1636v6.7688a6.5748 6.5748 0 00.509 3.0065c.233.2914.53.525.867.6831.337.158.705.2362 1.077.2287a2.4263 2.4263 0 001.067-.2723c.33-.1716.617-.4171.839-.7177a7.111 7.111 0 00.526-3.1716v-1.286h-2.292V28.822h4.566v9.0193h-1.56l-.249-2.0941a3.2113 3.2113 0 01-1.206 1.7248 3.1578 3.1578 0 01-2.007.5952 3.9847 3.9847 0 01-1.971-.3277 4.0196 4.0196 0 01-1.57-1.245z"/>
    <path fill="#444444" d="M167.711 31.4113l-3.902-11.7912h2.343l2.765 8.7935 2.722-8.7935h2.369l-3.876 11.7912v6.43h-2.412l-.009-6.43z"/>
  </g>
  <defs>
    <clipPath id="clip0">
      <path fill="white" d="M0 0h174v51.6832H0z"/>
    </clipPath>
  </defs>
</svg>
